<svg width="24" height="24" viewBox="0 0 24 24" fill="none" xmlns="http://www.w3.org/2000/svg">
<path d="M11.9946 14.6531L5.79297 8.32297C5.58204 8.10766 5.33594 8.00359 5.05469 8.01077C4.77344 8.01794 4.52735 8.12919 4.31641 8.3445C4.10547 8.55981 4 8.811 4 9.09809C4 9.38517 4.10547 9.63636 4.31641 9.85167L10.7922 16.4833C10.961 16.6555 11.1508 16.7847 11.3617 16.8708C11.5727 16.9569 11.7836 17 11.9946 17C12.2055 17 12.4164 16.9569 12.6274 16.8708C12.8383 16.7847 13.0282 16.6555 13.1969 16.4833L19.6938 9.85167C19.9047 9.63636 20.0067 9.38158 19.9997 9.08732C19.9926 8.79306 19.8836 8.53828 19.6727 8.32297C19.4618 8.10766 19.2157 8 18.9344 8C18.6532 8 18.4071 8.10766 18.1961 8.32297L11.9946 14.6531Z" fill="currentColor"/>
</svg>
